<svg width="24" height="30" viewBox="0 0 24 30" fill="none" xmlns="http://www.w3.org/2000/svg">
<path d="M21.7674 17.6687C20.1541 15.7436 20.0669 13.6874 19.9795 12.0687C19.9795 11.7626 19.9358 11.4561 19.9358 11.15C19.7178 8.61258 19.3689 4.41258 14.2673 3.45V3.27516C14.2676 2.00613 13.2645 1 12.0001 1C10.7356 1 9.7325 2.00613 9.7325 3.27516V3.45031C4.63088 4.41289 4.28204 8.74418 4.06406 11.1503C4.02034 11.4129 4.02034 11.719 4.02034 12.069C3.93321 13.7316 3.84608 15.7442 2.23246 17.669C1.2731 18.8064 0.837134 20.119 1.05512 21.3877C1.22969 22.3939 1.7965 23.3129 2.6247 23.8377C5.06653 25.369 9.07825 25.6752 11.9994 25.6316C12.1303 25.6316 12.2611 25.6316 12.392 25.6316C13.0025 25.6316 13.7002 25.6316 14.3541 25.5877C14.0924 26.6377 13.1334 27.4252 11.9994 27.4252C11.2147 27.4252 10.4733 27.0313 9.99359 26.3752C9.73188 26.0252 9.2522 25.9377 8.90337 26.2C8.55454 26.4626 8.46741 26.9439 8.7288 27.2939C9.47111 28.3439 10.6919 29 12.0001 29C14.0493 29 15.7501 27.4248 16.0118 25.4561C17.9739 25.2374 19.9798 24.7561 21.3751 23.8374C22.2474 23.3123 22.8142 22.3936 22.945 21.3874C23.1627 20.1187 22.7267 18.8061 21.7674 17.6687ZM21.4185 21.1252C21.3314 21.6939 21.026 22.1752 20.5463 22.4813C18.8896 23.5313 15.8809 24.1 12.0001 24.0561C8.16292 24.1 5.11056 23.531 3.49725 22.4813C3.01757 22.1752 2.71245 21.6939 2.62501 21.1252C2.49416 20.3377 2.79959 19.4626 3.45353 18.6752C5.41567 16.3564 5.5028 13.9064 5.59024 12.1126C5.59024 11.8064 5.63396 11.5439 5.63396 11.2813C5.89566 7.95613 6.50589 5.15613 11.1716 4.85C11.6075 4.80613 11.9563 4.45613 11.9129 4.01871C11.8692 3.66871 11.6078 3.36258 11.3024 3.31871V3.27484C11.3024 2.88098 11.6075 2.57484 12.0001 2.57484C12.3926 2.57484 12.6977 2.88098 12.6977 3.27484V4.15C12.6977 4.15 12.6977 4.15 12.6977 4.19387C12.6977 4.58773 13.0028 4.89387 13.3954 4.93773C17.5377 5.41902 18.1045 8.1316 18.3662 11.3252C18.3662 11.5877 18.4099 11.8503 18.4099 12.1564C18.497 13.9503 18.5845 16.4003 20.5466 18.719C21.2006 19.4626 21.5057 20.3374 21.4185 21.1252Z" stroke="url(#paint0_linear_29_10847)" stroke-width="1.7" stroke-linecap="round" stroke-linejoin="round"/>
<defs>
<linearGradient id="paint0_linear_29_10847" x1="12" y1="1" x2="12" y2="29" gradientUnits="userSpaceOnUse">
<stop stop-color="#53FFFF"/>
<stop offset="0.473994" stop-color="#F5EEFF" stop-opacity="0.78"/>
<stop offset="0.979211" stop-color="#E6611E" stop-opacity="0.7"/>
</linearGradient>
</defs>
</svg>
