<svg width="24" height="24" viewBox="0 0 24 24" fill="none" xmlns="http://www.w3.org/2000/svg">
<path fill-rule="evenodd" clip-rule="evenodd" d="M5.69455 6.50001L6.09728 6.90274C6.63425 7.43971 6.63425 8.31031 6.09728 8.84728C5.5603 9.38426 4.68971 9.38426 4.15273 8.84728L1.40273 6.09728C0.865757 5.5603 0.865757 4.68971 1.40273 4.15273L4.15273 1.40273C4.68971 0.865757 5.5603 0.865757 6.09728 1.40273C6.63425 1.9397 6.63425 2.8103 6.09728 3.34727L5.69455 3.75H17.5C20.2845 3.75 22.5417 6.00723 22.5417 8.79167V11.0833C22.5417 11.8427 21.9261 12.4583 21.1667 12.4583C20.4073 12.4583 19.7917 11.8427 19.7917 11.0833V8.79167C19.7917 7.52602 18.7657 6.50001 17.5 6.50001H5.69455ZM18.3055 17.5L17.9027 17.0973C17.3658 16.5603 17.3658 15.6897 17.9027 15.1527C18.4397 14.6158 19.3103 14.6158 19.8473 15.1527L22.5973 17.9027C23.1342 18.4397 23.1342 19.3103 22.5973 19.8473L19.8473 22.5973C19.3103 23.1342 18.4397 23.1342 17.9027 22.5973C17.3658 22.0603 17.3658 21.1897 17.9027 20.6527L18.3055 20.25H6.50001C3.71556 20.25 1.45833 17.9928 1.45833 15.2083V12.9167C1.45833 12.1573 2.07394 11.5417 2.83334 11.5417C3.59273 11.5417 4.20834 12.1573 4.20834 12.9167V15.2083C4.20834 16.474 5.23435 17.5 6.50001 17.5H18.3055Z" stroke="url(#paint0_linear_29_10839)" stroke-width="1.8" stroke-linecap="round" stroke-linejoin="round"/>
<defs>
<linearGradient id="paint0_linear_29_10839" x1="12" y1="1" x2="12" y2="23" gradientUnits="userSpaceOnUse">
<stop stop-color="#53FFFF"/>
<stop offset="0.473994" stop-color="#F5EEFF" stop-opacity="0.78"/>
<stop offset="0.979211" stop-color="#E6611E" stop-opacity="0.7"/>
</linearGradient>
</defs>
</svg>
