<svg width="316" height="248" viewBox="0 0 316 248" fill="none" xmlns="http://www.w3.org/2000/svg">
<rect x="93" width="208" height="236" rx="11" fill="#171717"/>
<path d="M127.255 110.033C127.711 109.919 128.185 109.894 128.65 109.962C129.945 110.189 131.168 110.719 132.22 111.508C133.272 112.297 134.123 113.323 134.704 114.503C135.342 116.016 134.999 117.227 133.956 117.745C133.871 117.789 133.783 117.826 133.693 117.857C120.906 123.242 100.901 122.709 82.3624 104.536L89.0545 97.7007C102.909 111.244 117.321 112.981 127.255 110.033Z" fill="#181717"/>
<path d="M68.0157 102.344C67.9746 102.676 68.018 103.013 68.1419 103.324C68.2659 103.634 68.4664 103.908 68.7247 104.121C70.5991 105.715 72.9261 106.682 75.3784 106.885C77.8307 107.088 80.2849 106.517 82.3958 105.252C82.8533 104.987 83.1866 104.551 83.3226 104.04C83.4586 103.529 83.386 102.985 83.1208 102.527C82.8556 102.07 82.4196 101.737 81.9086 101.601C81.3976 101.465 80.8536 101.537 80.3961 101.802C78.9876 102.649 77.3487 103.033 75.7105 102.898C74.0724 102.764 72.5179 102.119 71.2662 101.054C70.9901 100.827 70.6586 100.679 70.306 100.624C69.9534 100.57 69.5926 100.61 69.2609 100.742C68.9293 100.874 68.6389 101.092 68.42 101.373C68.201 101.655 68.0614 101.99 68.0157 102.344Z" fill="#181717"/>
<path d="M85.7083 110.269C80.6308 110.269 76.5146 106.153 76.5146 101.075C76.5146 95.9977 80.6308 91.8815 85.7083 91.8815C90.7859 91.8815 94.902 95.9977 94.902 101.075C94.902 106.153 90.7859 110.269 85.7083 110.269Z" fill="url(#paint0_linear_36_423)"/>
<path opacity="0.2" d="M80.6505 93.4042C79.3041 94.416 77.5594 99.1164 81.4472 102.829C85.9723 107.115 94.1384 104.637 94.7518 99.6422C95.0111 101.274 94.8256 102.946 94.2151 104.482C93.6045 106.017 92.5913 107.36 91.2821 108.368C89.973 109.377 88.4162 110.013 86.7756 110.212C85.1351 110.41 83.4714 110.163 81.9596 109.495C80.4478 108.828 79.1438 107.766 78.1847 106.42C77.2257 105.074 76.6472 103.495 76.51 101.848C76.3727 100.201 76.6819 98.5479 77.4049 97.062C78.128 95.5761 79.2381 94.3125 80.6186 93.4042H80.6505Z" fill="black"/>
<path opacity="0.3" d="M92.4554 96.3548C92.5208 96.4291 92.5795 96.5091 92.6307 96.5938C92.9495 97.0641 93.1891 97.5835 93.3397 98.1314C93.5642 98.7303 93.6003 99.3836 93.4433 100.004C93.347 100.32 93.138 100.589 92.856 100.761C92.5739 100.933 92.2386 100.995 91.9137 100.936C91.3002 100.745 91.0373 100.043 90.8382 99.438C90.3172 97.8718 89.6364 96.3634 88.8066 94.9367C88.7567 94.8702 88.7211 94.7942 88.7019 94.7133C88.6827 94.6324 88.6804 94.5485 88.6951 94.4667C88.7668 94.2595 89.0376 94.2117 89.2607 94.2197C90.5752 94.3073 91.595 95.3589 92.4554 96.3548Z" fill="white"/>
<path d="M75.972 86.3373C75.9139 86.8234 76.037 87.314 76.3177 87.7152C76.5984 88.1164 77.017 88.4001 77.4937 88.5122C79.1014 88.8595 80.5593 89.7031 81.6615 90.924C82.7637 92.1448 83.4544 93.6812 83.6361 95.3159C83.7026 95.8441 83.9763 96.3243 84.3969 96.6507C84.8175 96.9772 85.3505 97.1232 85.8787 97.0566C86.407 96.9901 86.8871 96.7164 87.2136 96.2958C87.54 95.8752 87.6861 95.3422 87.6195 94.814C87.3436 92.3676 86.3074 90.0693 84.6566 88.2428C83.0059 86.4163 80.8239 85.1536 78.4178 84.6324C78.1472 84.5672 77.8657 84.5609 77.5925 84.614C77.3192 84.667 77.0606 84.7781 76.834 84.9397C76.6074 85.1014 76.4181 85.3098 76.279 85.5509C76.1399 85.792 76.0543 86.0602 76.0278 86.3373H75.972Z" fill="#181717"/>
<path d="M219.616 101.057C219.616 135.314 204.55 206.84 168.947 206.84C133.343 206.84 118.294 135.274 118.294 101.057H219.616Z" fill="url(#paint1_linear_36_423)"/>
<path opacity="0.8" d="M219.616 101.057C219.616 135.314 204.55 206.84 168.947 206.84C133.343 206.84 118.294 135.274 118.294 101.057H219.616Z" fill="white"/>
<path d="M118.294 101.057C119.728 121.683 125.392 135.696 134.331 140.652C138.076 142.723 143.334 142.723 147.875 140.652C155.483 137.114 160.67 128.606 161.474 124.543L163.426 124.933C162.526 129.498 156.997 138.612 148.719 142.46C146.026 143.589 143.139 144.182 140.219 144.205C137.824 144.21 135.467 143.602 133.375 142.436C127.241 139.034 122.572 131.808 119.609 121.428C118.758 114.683 118.306 107.894 118.254 101.096L118.294 101.057Z" fill="url(#paint2_linear_36_423)"/>
<path d="M133.916 120.386C133.916 156.157 139.82 182.91 151.499 200.341C149.994 199.146 148.575 197.847 147.253 196.453C137.334 178.791 132.323 153.369 132.323 120.386H133.916Z" fill="url(#paint3_linear_36_423)"/>
<path opacity="0.2" d="M172.301 192.42C187.764 178.414 190.704 137.449 186.338 128.534V101.057H219.616C219.616 135.314 204.55 206.84 168.947 206.84C156.996 206.84 147.357 198.762 139.828 186.74C139.804 186.748 156.845 206.434 172.301 192.42Z" fill="url(#paint4_linear_36_423)"/>
<path d="M133.12 121.746C152.909 133.17 184.992 133.17 204.781 121.746C214.676 116.034 219.616 108.545 219.616 101.032C219.616 93.5192 214.676 86.0623 204.781 80.3182C184.992 68.8858 152.909 68.8938 133.12 80.3182C123.225 86.0304 118.278 93.5113 118.278 101.032C118.278 108.553 123.225 116.034 133.12 121.746Z" fill="url(#paint5_linear_36_423)"/>
<path opacity="0.6" d="M133.12 121.746C152.909 133.17 184.992 133.17 204.781 121.746C214.676 116.034 219.616 108.545 219.616 101.032C219.616 93.5192 214.676 86.0623 204.781 80.3182C184.992 68.8858 152.909 68.8938 133.12 80.3182C123.225 86.0304 118.278 93.5113 118.278 101.032C118.278 108.553 123.225 116.034 133.12 121.746Z" fill="white"/>
<path opacity="0.3" d="M132.569 107.437C129.753 104.749 127.615 101.43 126.332 97.7538C125.05 94.0777 124.659 90.1496 125.192 86.2928C127.584 83.9883 130.262 81.9991 133.159 80.3734C152.948 68.949 185.031 68.949 204.82 80.3734C214.715 86.0857 219.655 93.5665 219.655 101.087C219.655 108.608 214.715 116.065 204.82 121.801C187.955 131.528 162.174 132.955 142.679 126.111C162.596 132.214 188.448 126.772 190.647 115.993C178.657 120.964 148.192 123.02 132.569 107.437Z" fill="url(#paint6_linear_36_423)"/>
<path d="M218.428 123.006C222.441 125.53 225.32 129.511 226.459 134.114C227.599 138.716 226.91 143.58 224.538 147.685C222.166 151.79 218.295 154.816 213.738 156.127C209.182 157.437 204.295 156.931 200.104 154.714C197.762 153.36 196.312 150.46 196.312 146.333C196.312 138.071 202.104 128.009 209.25 123.906C212.843 121.843 216.086 121.652 218.428 123.006Z" fill="#455A64"/>
<path d="M210.224 152.575C219.593 153.428 226.349 145.923 227.433 136.554C227.854 139.934 227.325 143.364 225.905 146.46C224.486 149.556 222.231 152.195 219.394 154.081C216.558 155.967 213.252 157.024 209.848 157.136C206.444 157.247 203.076 156.407 200.122 154.71C197.78 153.356 196.33 150.456 196.33 146.329C196.349 144.568 196.585 142.815 197.031 141.111C197.039 146.345 200.194 151.659 210.224 152.575Z" fill="#37474F"/>
<path d="M219.912 139.006C222.78 137.356 225.098 138.695 225.098 142.001C225.002 143.8 224.482 145.551 223.58 147.112C222.679 148.672 221.422 149.997 219.912 150.98C217.051 152.637 214.733 151.29 214.733 147.984C214.83 146.186 215.35 144.436 216.25 142.876C217.149 141.316 218.404 139.99 219.912 139.006Z" fill="#263238"/>
<path d="M223.234 140.92C223.135 142.719 222.614 144.469 221.713 146.029C220.812 147.589 219.557 148.915 218.048 149.899C217.273 150.396 216.362 150.636 215.443 150.584C214.939 149.812 214.691 148.9 214.734 147.979C214.831 146.181 215.351 144.431 216.25 142.871C217.15 141.311 218.404 139.985 219.912 139C220.691 138.507 221.604 138.268 222.525 138.315C223.025 139.089 223.273 140 223.234 140.92Z" fill="url(#paint7_linear_36_423)"/>
<path opacity="0.1" d="M223.001 142.81C222.324 145.726 220.549 148.268 218.045 149.908C217.271 150.405 216.359 150.645 215.44 150.593C214.936 149.821 214.688 148.909 214.731 147.988C214.743 147.101 214.885 146.221 215.153 145.375C216.763 148.275 222.172 145.622 223.001 142.81Z" fill="black"/>
<path d="M216.366 148.844C216.197 148.404 216.116 147.936 216.127 147.465C216.199 146.153 216.579 144.876 217.236 143.738C217.894 142.6 218.81 141.634 219.912 140.917C221.338 140.12 222.581 140.295 223.218 141.267C223.273 141.345 223.321 141.427 223.361 141.514C230.237 153.568 232.125 173.493 216.271 194.095L208.686 188.271C220.517 172.864 220.517 158.348 216.366 148.844Z" fill="#181717"/>
<path d="M215.854 208.57C216.188 208.569 216.517 208.485 216.811 208.325C217.104 208.165 217.353 207.934 217.535 207.654C218.893 205.601 219.574 203.174 219.481 200.715C219.388 198.255 218.527 195.887 217.017 193.943C216.7 193.52 216.228 193.241 215.705 193.166C215.182 193.091 214.651 193.227 214.229 193.544C213.806 193.861 213.527 194.333 213.452 194.856C213.377 195.379 213.513 195.91 213.83 196.333C214.841 197.631 215.418 199.213 215.481 200.857C215.544 202.501 215.089 204.123 214.181 205.495C213.988 205.795 213.88 206.142 213.867 206.499C213.854 206.856 213.938 207.21 214.109 207.524C214.28 207.838 214.532 208.099 214.839 208.282C215.146 208.465 215.497 208.561 215.854 208.562V208.57Z" fill="#181717"/>
<path d="M205.429 197.063C202.172 193.168 202.69 187.37 206.585 184.113C210.48 180.856 216.278 181.373 219.535 185.269C222.792 189.164 222.275 194.962 218.379 198.219C214.484 201.476 208.686 200.958 205.429 197.063Z" fill="url(#paint8_linear_36_423)"/>
<path opacity="0.2" d="M205.467 197.103C206.63 198.314 211.506 199.493 214.732 195.152C218.437 190.148 215.003 182.333 209.952 182.325C211.541 181.872 213.223 181.856 214.821 182.279C216.418 182.701 217.873 183.546 219.03 184.725C220.188 185.904 221.007 187.373 221.4 188.978C221.794 190.583 221.747 192.265 221.266 193.846C220.784 195.426 219.886 196.848 218.664 197.961C217.443 199.075 215.944 199.838 214.326 200.172C212.707 200.505 211.029 200.396 209.467 199.856C207.905 199.316 206.518 198.365 205.451 197.103H205.467Z" fill="black"/>
<path opacity="0.3" d="M206.989 185.026C207.057 184.951 207.132 184.881 207.212 184.819C207.643 184.454 208.127 184.156 208.646 183.934C209.215 183.642 209.859 183.528 210.494 183.608C210.821 183.666 211.114 183.841 211.32 184.101C211.525 184.361 211.628 184.687 211.61 185.018C211.49 185.647 210.813 185.99 210.247 186.261C208.755 186.969 207.338 187.826 206.017 188.818C205.957 188.876 205.886 188.921 205.808 188.95C205.729 188.978 205.646 188.991 205.563 188.985C205.348 188.937 205.268 188.674 205.26 188.451C205.18 187.137 206.105 185.998 206.989 185.026Z" fill="white"/>
<path d="M199.013 202.589C199.497 202.59 199.965 202.413 200.328 202.094C200.692 201.774 200.927 201.333 200.989 200.853C201.141 199.214 201.804 197.665 202.885 196.424C203.966 195.183 205.41 194.313 207.012 193.937C207.524 193.809 207.964 193.481 208.236 193.028C208.507 192.575 208.587 192.032 208.458 191.52C208.329 191.007 208.002 190.567 207.548 190.296C207.095 190.025 206.552 189.945 206.04 190.074C203.642 190.639 201.483 191.942 199.866 193.801C198.25 195.659 197.257 197.978 197.029 200.43C197.001 200.69 197.023 200.953 197.096 201.203C197.169 201.454 197.291 201.688 197.455 201.891C197.618 202.095 197.82 202.264 198.05 202.39C198.279 202.515 198.53 202.594 198.79 202.621L199.013 202.589Z" fill="#181717"/>
<path d="M128.076 85.4597C128.076 79.4208 132.06 73.3819 140.027 68.7771C155.96 59.5595 181.861 59.5595 197.826 68.7771C205.793 73.3819 209.776 79.4208 209.776 85.4597V92.9405C209.776 98.9794 205.793 105.018 197.826 109.623C181.892 118.841 155.984 118.841 140.027 109.623C132.06 105.018 128.076 98.9794 128.076 92.9405V85.4597Z" fill="#37474F"/>
<path d="M162.533 116.241C172.364 116.44 185.143 111.962 181.892 100.419V63.0859C187.48 64.0968 192.864 66.0213 197.826 68.7822C205.793 73.387 209.776 79.4259 209.776 85.4648V92.9456C209.776 98.9845 205.793 105.023 197.826 109.628C188.234 115.181 175.009 117.38 162.533 116.241Z" fill="#263238"/>
<path d="M140.051 102.161C155.985 111.379 181.885 111.371 197.85 102.161C205.817 97.5481 209.801 91.5092 209.801 85.4305C209.801 79.3519 205.817 73.3528 197.85 68.748C181.917 59.5304 156.009 59.5304 140.051 68.748C132.084 73.3528 128.101 79.3917 128.101 85.4305C128.101 91.4694 132.068 97.5481 140.051 102.161Z" fill="#263238"/>
<path d="M113.951 96.4894L115.719 94.8961C114.014 93.0079 112.055 90.116 112.413 86.9292C112.684 84.587 114.237 82.42 117.042 80.492C120.247 78.2669 123.728 76.4698 127.399 75.1463C127.622 74.2221 128.076 72.7563 128.195 72.3579C123.734 73.7635 119.513 75.843 115.679 78.5242C112.294 80.8585 110.39 83.5991 110.039 86.6504C109.577 90.6975 111.919 94.2269 113.951 96.4894Z" fill="#181717"/>
<path d="M113.225 93.4326C115.536 91.6241 117.073 92.6359 120.156 96.3962C123.24 100.157 122.371 101.686 120.459 103.192C118.547 104.698 116.476 103.774 114.038 100.635C111.329 97.1053 110.477 95.5916 113.225 93.4326Z" fill="url(#paint9_linear_36_423)"/>
<path opacity="0.3" d="M118.533 96.0131C119.354 96.7803 120.055 97.6666 120.612 98.6422C120.804 98.9582 120.925 99.3121 120.966 99.6794C121.007 100.047 120.968 100.419 120.851 100.769C120.703 101.076 120.492 101.348 120.23 101.566C119.725 102.065 119.058 102.364 118.35 102.41C118.225 102.421 118.1 102.393 117.991 102.331C117.926 102.276 117.874 102.208 117.838 102.131C117.803 102.054 117.784 101.97 117.784 101.885C117.689 101.144 117.888 100.395 117.784 99.654C117.569 97.7738 115.593 96.3955 115.577 94.5074C115.571 94.4035 115.59 94.2996 115.633 94.2047C115.84 93.8223 116.43 94.0533 116.741 94.2047C116.876 94.3061 117.002 94.4209 117.115 94.5472C117.322 94.7623 117.537 94.9774 117.744 95.2005L118.533 96.0131Z" fill="white"/>
<path d="M123.185 83.5927C123.105 77.5318 124.23 71.5155 126.494 65.8929C128.758 60.2702 132.116 55.1533 136.374 50.8391C140.632 46.5249 145.704 43.0994 151.296 40.7614C156.889 38.4233 162.889 37.2194 168.951 37.2194C175.012 37.2194 181.013 38.4233 186.605 40.7614C192.198 43.0994 197.27 46.5249 201.527 50.8391C205.785 55.1533 209.143 60.2702 211.408 65.8929C213.672 71.5155 214.796 77.5318 214.716 83.5927C214.716 90.3485 210.247 97.1363 201.308 102.275C183.439 112.632 154.463 112.632 136.586 102.275C127.647 97.1124 123.185 90.3565 123.185 83.5927Z" fill="url(#paint10_linear_36_423)"/>
<path opacity="0.8" d="M123.185 83.5927C123.105 77.5318 124.23 71.5155 126.494 65.8929C128.758 60.2702 132.116 55.1533 136.374 50.8391C140.632 46.5249 145.704 43.0994 151.296 40.7614C156.889 38.4233 162.889 37.2194 168.951 37.2194C175.012 37.2194 181.013 38.4233 186.605 40.7614C192.198 43.0994 197.27 46.5249 201.527 50.8391C205.785 55.1533 209.143 60.2702 211.408 65.8929C213.672 71.5155 214.796 77.5318 214.716 83.5927C214.716 90.3485 210.247 97.1363 201.308 102.275C183.439 112.632 154.463 112.632 136.586 102.275C127.647 97.1124 123.185 90.3565 123.185 83.5927Z" fill="white"/>
<path opacity="0.3" d="M129.192 96.6862C152.997 111.353 184.418 109.8 185.127 94.2245C185.613 83.5967 191.102 74.7297 198.249 70.6188C197.524 53.8884 186.418 40.6236 174.412 38.1699C185.518 39.5058 195.75 44.8636 203.175 53.2306C210.6 61.5977 214.703 72.3945 214.708 83.5808C214.708 90.3367 210.239 97.1244 201.3 102.263C183.43 112.62 154.455 112.62 136.577 102.263C134.638 101.154 132.804 99.8716 131.096 98.431L129.256 96.742L129.192 96.6862Z" fill="url(#paint11_linear_36_423)"/>
<path d="M124.573 72.3953C126.603 64.3249 130.801 56.9635 136.715 51.108C136.715 55.8881 139.845 60.6682 146.147 64.2771C153.572 68.5633 163.674 70.324 173.37 69.5592C175.472 69.3833 177.563 70.0065 179.226 71.3046C180.889 72.6027 182.001 74.48 182.341 76.562C183.042 80.896 183.472 85.0945 183.719 88.8309C183.873 90.9766 183.186 93.098 181.803 94.7457C180.42 96.3934 178.45 97.438 176.31 97.6582C162.639 98.9807 148.107 96.5986 137.567 90.488C128.907 85.4928 124.573 78.9521 124.573 72.3953Z" fill="#283840"/>
<path d="M164.804 86.5659C164.931 86.5778 165.059 86.5778 165.187 86.5659C165.445 86.5181 165.691 86.4197 165.911 86.2763C166.131 86.1329 166.321 85.9473 166.469 85.7304C166.617 85.5134 166.721 85.2693 166.774 85.0121C166.828 84.7549 166.83 84.4896 166.78 84.2316C166.438 82.4764 165.584 80.8618 164.325 79.592C163.066 78.3222 161.459 77.4542 159.706 77.0978C157.954 76.7413 156.136 76.9125 154.48 77.5895C152.825 78.2666 151.408 79.4191 150.408 80.9015C150.112 81.3399 150.003 81.8779 150.104 82.3971C150.205 82.9163 150.507 83.3742 150.946 83.67C151.163 83.8164 151.407 83.9187 151.663 83.971C151.92 84.0232 152.184 84.0244 152.442 83.9745C152.961 83.8736 153.419 83.5707 153.714 83.1322C154.274 82.3048 155.066 81.6616 155.991 81.2837C156.915 80.9057 157.931 80.81 158.91 81.0085C159.889 81.207 160.787 81.6909 161.492 82.3992C162.196 83.1075 162.675 84.0084 162.868 84.9885C162.963 85.4328 163.206 85.8314 163.558 86.1183C163.91 86.4052 164.35 86.5631 164.804 86.5659Z" fill="url(#paint12_linear_36_423)"/>
<path opacity="0.3" d="M164.804 86.5659C164.931 86.5778 165.059 86.5778 165.187 86.5659C165.445 86.5181 165.691 86.4197 165.911 86.2763C166.131 86.1329 166.321 85.9473 166.469 85.7304C166.617 85.5134 166.721 85.2693 166.774 85.0121C166.828 84.7549 166.83 84.4896 166.78 84.2316C166.438 82.4764 165.584 80.8618 164.325 79.592C163.066 78.3222 161.459 77.4542 159.706 77.0978C157.954 76.7413 156.136 76.9125 154.48 77.5895C152.825 78.2666 151.408 79.4191 150.408 80.9015C150.112 81.3399 150.003 81.8779 150.104 82.3971C150.205 82.9163 150.507 83.3742 150.946 83.67C151.163 83.8164 151.407 83.9187 151.663 83.971C151.92 84.0232 152.184 84.0244 152.442 83.9745C152.961 83.8736 153.419 83.5707 153.714 83.1322C154.274 82.3048 155.066 81.6616 155.991 81.2837C156.915 80.9057 157.931 80.81 158.91 81.0085C159.889 81.207 160.787 81.6909 161.492 82.3992C162.196 83.1075 162.675 84.0084 162.868 84.9885C162.963 85.4328 163.206 85.8314 163.558 86.1183C163.91 86.4052 164.35 86.5631 164.804 86.5659Z" fill="white"/>
<path d="M128.164 62.8337C129.652 63.4674 130.942 64.4895 131.899 65.793C132.857 67.0965 133.446 68.6335 133.605 70.2429C133.656 70.7678 133.497 71.2916 133.163 71.6993C132.828 72.1071 132.345 72.3655 131.821 72.4178C131.694 72.4338 131.565 72.4338 131.438 72.4178C130.979 72.374 130.549 72.1721 130.222 71.8466C129.895 71.5212 129.692 71.0923 129.646 70.6333C129.55 69.718 129.207 68.8461 128.652 68.1118C128.098 67.3774 127.353 66.8086 126.499 66.4666C126.998 65.2344 127.553 64.0235 128.164 62.8337Z" fill="url(#paint13_linear_36_423)"/>
<path opacity="0.3" d="M128.164 62.8337C129.652 63.4674 130.942 64.4895 131.899 65.793C132.857 67.0965 133.446 68.6335 133.605 70.2429C133.656 70.7678 133.497 71.2916 133.163 71.6993C132.828 72.1071 132.345 72.3655 131.821 72.4178C131.694 72.4338 131.565 72.4338 131.438 72.4178C130.979 72.374 130.549 72.1721 130.222 71.8466C129.895 71.5212 129.692 71.0923 129.646 70.6333C129.55 69.718 129.207 68.8461 128.652 68.1118C128.098 67.3774 127.353 66.8086 126.499 66.4666C126.998 65.2344 127.553 64.0235 128.164 62.8337Z" fill="white"/>
<g opacity="0.1">
<path d="M145.874 64.119C141.533 72.2062 138.386 80.879 136.529 89.8678C134.742 88.7801 133.059 87.5292 131.502 86.1314C133.35 79.1365 136.537 69.7197 141.755 61.1235C143.024 62.258 144.404 63.2616 145.874 64.119Z" fill="white"/>
<path d="M149.554 65.9825C152.459 67.2303 155.491 68.1573 158.596 68.747C156.879 78.006 155.815 87.3742 155.41 96.7823C150.905 95.9782 146.506 94.6659 142.296 92.8706C143.956 83.72 146.384 74.7255 149.554 65.9825Z" fill="white"/>
</g>
<path d="M226.268 62.6534C225.716 63.2049 225.341 63.9076 225.189 64.6726C225.036 65.4376 225.115 66.2305 225.413 66.9511C225.711 67.6718 226.217 68.2877 226.865 68.721C227.514 69.1544 228.276 69.3857 229.056 69.3857C229.836 69.3857 230.599 69.1544 231.247 68.721C231.896 68.2877 232.401 67.6718 232.7 66.9511C232.998 66.2305 233.076 65.4376 232.924 64.6726C232.772 63.9076 232.396 63.2049 231.845 62.6534C231.1 61.9235 230.099 61.5147 229.056 61.5147C228.014 61.5147 227.013 61.9235 226.268 62.6534Z" fill="url(#paint14_linear_36_423)"/>
<path opacity="0.3" d="M226.268 62.6519C225.759 63.1611 225.399 63.8002 225.227 64.4997C225.055 65.1992 225.078 65.9324 225.293 66.6198C225.508 67.3072 225.908 67.9225 226.448 68.3989C226.988 68.8753 227.649 69.1946 228.358 69.3223C229.067 69.4499 229.797 69.3809 230.47 69.1227C231.142 68.8646 231.731 68.4272 232.172 67.8581C232.614 67.2889 232.891 66.6097 232.974 65.8942C233.057 65.1786 232.942 64.4541 232.642 63.7991C232.642 63.8947 232.642 63.9983 232.578 64.0939C232.212 65.2491 230.602 65.759 228.993 65.2411C227.384 64.7233 226.404 63.4088 226.746 62.2615C226.574 62.3752 226.414 62.506 226.268 62.6519Z" fill="black"/>
<path d="M226.833 66.2671C227.157 66.376 227.45 66.5586 227.691 66.8006C227.931 67.0426 228.112 67.3373 228.219 67.6613C228.263 67.7752 228.275 67.8985 228.256 68.0188C228.236 68.1391 228.185 68.2521 228.108 68.3464L211.378 85.0768L209.41 83.109L226.14 66.3786C226.235 66.2992 226.349 66.247 226.471 66.2273C226.593 66.2077 226.718 66.2214 226.833 66.2671Z" fill="#263238"/>
<path opacity="0.3" d="M231.583 62.8954C231.662 62.9776 231.715 63.0807 231.736 63.1924C231.757 63.3041 231.746 63.4195 231.703 63.5247C231.544 63.7558 231.185 63.6841 230.906 63.6044C229.915 63.4031 228.906 63.3017 227.895 63.3017C227.694 63.3067 227.495 63.2658 227.313 63.1822C227.267 63.1514 227.228 63.1113 227.199 63.0645C227.169 63.0178 227.149 62.9654 227.141 62.9107C227.133 62.856 227.136 62.8001 227.151 62.7468C227.165 62.6934 227.191 62.6436 227.226 62.6006C227.37 62.4106 227.555 62.2554 227.767 62.1465C228.268 61.8614 228.843 61.7363 229.416 61.788C229.923 61.8151 230.415 61.9655 230.85 62.2262C231.135 62.4008 231.384 62.6279 231.583 62.8954Z" fill="white"/>
<path d="M210.47 71.4832C214.483 74.0073 217.362 77.9887 218.502 82.5908C219.641 87.193 218.952 92.0576 216.58 96.1625C214.208 100.267 210.337 103.293 205.781 104.604C201.224 105.915 196.337 105.408 192.146 103.191C189.804 101.837 188.354 98.9369 188.354 94.8101C188.354 86.5564 194.146 76.4864 201.292 72.3914C204.885 70.328 208.128 70.1288 210.47 71.4832Z" fill="#455A64"/>
<path d="M202.264 101.055C211.633 101.908 218.389 94.4032 219.472 85.0342C219.894 88.4141 219.365 91.8445 217.945 94.9405C216.525 98.0365 214.271 100.676 211.434 102.561C208.598 104.447 205.292 105.505 201.888 105.616C198.483 105.727 195.116 104.887 192.162 103.191C189.82 101.836 188.37 98.9363 188.37 94.8095C188.386 93.0508 188.619 91.3009 189.063 89.5992C189.079 94.8334 192.234 100.139 202.264 101.055Z" fill="#37474F"/>
<path d="M211.951 87.4909C214.819 85.8338 217.138 87.1723 217.138 90.4785C217.041 92.2778 216.521 94.0289 215.62 95.5891C214.719 97.1494 213.462 98.4747 211.951 99.4571C209.091 101.114 206.773 99.7758 206.773 96.4696C206.87 94.6713 207.389 92.9211 208.289 91.3611C209.188 89.8011 210.443 88.4752 211.951 87.4909Z" fill="#263238"/>
<path d="M215.274 89.4034C215.175 91.2022 214.655 92.9526 213.754 94.5126C212.852 96.0725 211.596 97.3982 210.087 98.382C209.313 98.8788 208.401 99.1185 207.482 99.0672C206.977 98.2982 206.729 97.3889 206.773 96.47C206.87 94.6717 207.389 92.9216 208.289 91.3615C209.189 89.8015 210.443 88.4756 211.952 87.4914C212.729 86.9945 213.643 86.7548 214.565 86.8062C215.066 87.5768 215.314 88.4849 215.274 89.4034Z" fill="url(#paint15_linear_36_423)"/>
<path opacity="0.1" d="M215.043 91.2802C214.369 94.1971 212.593 96.7406 210.087 98.3786C209.313 98.8754 208.401 99.1151 207.482 99.0638C206.977 98.2948 206.729 97.3855 206.773 96.4666C206.784 95.5768 206.927 94.6936 207.195 93.8455C208.805 96.7295 214.214 94.0924 215.043 91.2802Z" fill="black"/>
<path d="M154.701 26.5389C157.545 24.8763 160.78 24 164.074 24C167.368 24 170.603 24.8763 173.447 26.5389L183.318 32.2432C190.443 36.3682 196.36 42.2926 200.476 49.4232C204.593 56.5539 206.764 64.6406 206.772 72.874C206.759 73.0148 206.708 73.1496 206.626 73.2644C206.543 73.3792 206.431 73.4699 206.302 73.5273C205.953 73.7038 205.566 73.7957 205.175 73.7957C204.783 73.7957 204.397 73.7038 204.048 73.5273C203.92 73.4688 203.81 73.3776 203.728 73.2629C203.647 73.1481 203.598 73.014 203.585 72.874C203.573 65.2035 201.548 57.6706 197.712 51.0283C193.875 44.386 188.362 38.8672 181.724 35.0236L171.854 29.3193C169.555 27.998 166.957 27.2859 164.307 27.2504C161.656 27.215 159.04 27.8574 156.707 29.1168C154.374 30.3762 152.402 32.2107 150.977 34.4464C149.553 36.682 148.723 39.2446 148.566 41.891C148.566 41.891 148.566 42.624 148.566 42.6319C147.045 43.3728 145.38 44.3846 145.38 44.3846V42.7913C145.353 39.4992 146.203 36.2593 147.841 33.4035C149.478 30.5476 151.846 28.1785 154.701 26.5389Z" fill="#181717"/>
<path d="M206.335 75.0836C208.346 73.8064 210.704 73.1882 213.083 73.3149C213.473 73.6416 213.88 73.9762 214.206 74.3267C213.59 74.146 212.952 74.0548 212.31 74.0559C210.334 74.1317 208.411 74.7221 206.733 75.7687C199.699 79.8318 193.986 89.7346 193.986 97.8448C193.986 100.984 194.847 103.422 196.376 104.967C195.898 104.84 195.412 104.672 194.934 104.497C193.678 102.512 193.059 100.191 193.158 97.8448C193.182 89.4796 199.085 79.2662 206.335 75.0836Z" fill="url(#paint16_linear_36_423)"/>
<g opacity="0.3">
<path d="M206.334 75.0803C208.345 73.8032 210.704 73.1849 213.082 73.3117C213.473 73.6383 213.879 73.973 214.206 74.3235C213.59 74.1428 212.951 74.0515 212.309 74.0526C210.333 74.1284 208.411 74.7188 206.733 75.7655C199.698 79.8286 193.986 89.7314 193.986 97.8416C193.986 100.981 194.846 103.418 196.376 104.964C195.898 104.836 195.412 104.669 194.934 104.494C193.678 102.509 193.058 100.188 193.157 97.8416C193.181 89.4764 199.084 79.2629 206.334 75.0803Z" fill="white"/>
</g>
<path d="M255.814 234.933C258.401 227.994 254.872 220.271 247.932 217.685C240.992 215.098 233.27 218.627 230.683 225.567C228.097 232.507 231.626 240.23 238.566 242.816C245.506 245.402 253.228 241.873 255.814 234.933Z" fill="#E6611E"/>
<path opacity="0.45" d="M29.1802 128.22C30.9971 130.153 32.2001 132.581 32.6369 135.197C33.0737 137.814 32.7248 140.501 31.6343 142.919C30.5438 145.337 28.7607 147.377 26.5104 148.782C24.2602 150.186 21.644 150.892 18.9927 150.809C16.3414 150.727 13.7741 149.86 11.6157 148.318C9.45716 146.776 7.80439 144.629 6.8664 142.148C5.92841 139.667 5.74735 136.963 6.34611 134.379C6.94486 131.795 8.29654 129.446 10.2302 127.63C12.823 125.199 16.2745 123.896 19.8272 124.007C23.3799 124.117 26.7436 125.633 29.1802 128.22Z" fill="white"/>
<path opacity="0.15" d="M312.204 128.25C314.014 130.185 315.21 132.612 315.641 135.227C316.072 137.841 315.72 140.524 314.627 142.938C313.535 145.352 311.752 147.388 309.504 148.79C307.255 150.192 304.642 150.896 301.994 150.814C299.345 150.731 296.781 149.866 294.624 148.328C292.467 146.79 290.813 144.647 289.873 142.17C288.933 139.692 288.747 136.992 289.34 134.41C289.933 131.828 291.277 129.479 293.204 127.66C294.488 126.447 295.999 125.5 297.65 124.873C299.302 124.246 301.061 123.952 302.826 124.006C304.592 124.061 306.329 124.464 307.938 125.193C309.547 125.921 310.997 126.96 312.204 128.25Z" fill="white"/>
<path d="M281.18 64.2287C282.997 66.1613 284.2 68.5893 284.637 71.2057C285.074 73.8221 284.725 76.5092 283.634 78.9272C282.544 81.3453 280.761 83.3856 278.51 84.7901C276.26 86.1946 273.644 86.9002 270.993 86.8176C268.341 86.7351 265.774 85.8681 263.616 84.3263C261.457 82.7846 259.804 80.6373 258.866 78.1561C257.928 75.6749 257.747 72.9713 258.346 70.3872C258.945 67.803 260.297 65.4545 262.23 63.6387C263.513 62.4324 265.021 61.4908 266.667 60.8675C268.314 60.2443 270.068 59.9517 271.827 60.0065C273.587 60.0613 275.319 60.4624 276.924 61.1868C278.529 61.9113 279.975 62.945 281.18 64.2287Z" fill="#E6611E"/>
<path opacity="0.45" d="M221.18 26.2246C222.997 28.1572 224.2 30.5852 224.637 33.2016C225.074 35.8179 224.725 38.5051 223.634 40.9231C222.544 43.3412 220.761 45.3814 218.51 46.786C216.26 48.1905 213.644 48.8961 210.993 48.8135C208.341 48.731 205.774 47.864 203.616 46.3222C201.457 44.7804 199.804 42.6332 198.866 40.152C197.928 37.6708 197.747 34.9671 198.346 32.383C198.945 29.7989 200.297 27.4504 202.23 25.6346C204.822 23.2009 208.274 21.8959 211.827 22.0065C215.381 22.1171 218.745 23.6344 221.18 26.2246Z" fill="white"/>
<path opacity="0.3" d="M256.4 155.356C257.839 156.89 258.791 158.817 259.136 160.892C259.481 162.967 259.203 165.098 258.337 167.016C257.471 168.933 256.056 170.551 254.271 171.664C252.486 172.777 250.411 173.336 248.308 173.271C246.205 173.205 244.169 172.517 242.457 171.295C240.745 170.072 239.434 168.37 238.689 166.402C237.944 164.435 237.8 162.29 238.273 160.241C238.747 158.191 239.817 156.327 241.35 154.886C243.408 152.953 246.15 151.917 248.972 152.005C251.794 152.093 254.466 153.299 256.4 155.356Z" fill="white"/>
<path opacity="0.15" d="M110.245 173.193C110.27 164.301 103.082 157.073 94.1898 157.048C85.2981 157.023 78.0698 164.211 78.045 173.103C78.0201 181.995 85.2082 189.223 94.0999 189.248C102.992 189.273 110.22 182.085 110.245 173.193Z" fill="white"/>
<path d="M16.1 56.2C24.9918 56.2 32.2 48.9918 32.2 40.1C32.2 31.2082 24.9918 24 16.1 24C7.20821 24 0 31.2082 0 40.1C0 48.9918 7.20821 56.2 16.1 56.2Z" fill="#E6611E"/>
<defs>
<linearGradient id="paint0_linear_36_423" x1="85.7083" y1="91.8815" x2="85.7083" y2="110.269" gradientUnits="userSpaceOnUse">
<stop stop-color="#53FFFF"/>
<stop offset="1" stop-color="#E6611E"/>
</linearGradient>
<linearGradient id="paint1_linear_36_423" x1="168.955" y1="101.057" x2="168.955" y2="206.84" gradientUnits="userSpaceOnUse">
<stop stop-color="#53FFFF"/>
<stop offset="1" stop-color="#E6611E"/>
</linearGradient>
<linearGradient id="paint2_linear_36_423" x1="140.84" y1="101.057" x2="140.84" y2="144.205" gradientUnits="userSpaceOnUse">
<stop stop-color="#53FFFF"/>
<stop offset="1" stop-color="#E6611E"/>
</linearGradient>
<linearGradient id="paint3_linear_36_423" x1="141.911" y1="120.386" x2="141.911" y2="200.341" gradientUnits="userSpaceOnUse">
<stop stop-color="#53FFFF"/>
<stop offset="1" stop-color="#E6611E"/>
</linearGradient>
<linearGradient id="paint4_linear_36_423" x1="179.722" y1="101.057" x2="179.722" y2="206.84" gradientUnits="userSpaceOnUse">
<stop stop-color="#53FFFF"/>
<stop offset="1" stop-color="#E6611E"/>
</linearGradient>
<linearGradient id="paint5_linear_36_423" x1="168.947" y1="71.7469" x2="168.947" y2="130.314" gradientUnits="userSpaceOnUse">
<stop stop-color="#53FFFF"/>
<stop offset="1" stop-color="#E6611E"/>
</linearGradient>
<linearGradient id="paint6_linear_36_423" x1="172.307" y1="71.8051" x2="172.307" y2="130.356" gradientUnits="userSpaceOnUse">
<stop stop-color="#53FFFF"/>
<stop offset="1" stop-color="#E6611E"/>
</linearGradient>
<linearGradient id="paint7_linear_36_423" x1="218.984" y1="138.309" x2="218.984" y2="150.591" gradientUnits="userSpaceOnUse">
<stop stop-color="#53FFFF"/>
<stop offset="1" stop-color="#E6611E"/>
</linearGradient>
<linearGradient id="paint8_linear_36_423" x1="219.535" y1="185.269" x2="205.429" y2="197.063" gradientUnits="userSpaceOnUse">
<stop stop-color="#53FFFF"/>
<stop offset="1" stop-color="#E6611E"/>
</linearGradient>
<linearGradient id="paint9_linear_36_423" x1="116.863" y1="92.5604" x2="116.863" y2="103.898" gradientUnits="userSpaceOnUse">
<stop stop-color="#53FFFF"/>
<stop offset="1" stop-color="#E6611E"/>
</linearGradient>
<linearGradient id="paint10_linear_36_423" x1="168.951" y1="37.2194" x2="168.951" y2="110.043" gradientUnits="userSpaceOnUse">
<stop stop-color="#53FFFF"/>
<stop offset="1" stop-color="#E6611E"/>
</linearGradient>
<linearGradient id="paint11_linear_36_423" x1="171.95" y1="38.1699" x2="171.95" y2="110.031" gradientUnits="userSpaceOnUse">
<stop stop-color="#53FFFF"/>
<stop offset="1" stop-color="#E6611E"/>
</linearGradient>
<linearGradient id="paint12_linear_36_423" x1="158.441" y1="76.9163" x2="158.441" y2="86.5748" gradientUnits="userSpaceOnUse">
<stop stop-color="#53FFFF"/>
<stop offset="1" stop-color="#E6611E"/>
</linearGradient>
<linearGradient id="paint13_linear_36_423" x1="130.057" y1="62.8337" x2="130.057" y2="72.4298" gradientUnits="userSpaceOnUse">
<stop stop-color="#53FFFF"/>
<stop offset="1" stop-color="#E6611E"/>
</linearGradient>
<linearGradient id="paint14_linear_36_423" x1="229.056" y1="61.5147" x2="229.056" y2="69.3857" gradientUnits="userSpaceOnUse">
<stop stop-color="#53FFFF"/>
<stop offset="1" stop-color="#E6611E"/>
</linearGradient>
<linearGradient id="paint15_linear_36_423" x1="211.023" y1="86.7994" x2="211.023" y2="99.074" gradientUnits="userSpaceOnUse">
<stop stop-color="#53FFFF"/>
<stop offset="1" stop-color="#E6611E"/>
</linearGradient>
<linearGradient id="paint16_linear_36_423" x1="203.677" y1="73.2987" x2="203.677" y2="104.967" gradientUnits="userSpaceOnUse">
<stop stop-color="#53FFFF"/>
<stop offset="1" stop-color="#E6611E"/>
</linearGradient>
</defs>
</svg>
