<svg width="408" height="425" viewBox="0 0 408 425" fill="none" xmlns="http://www.w3.org/2000/svg">
<rect x="185" y="85" width="208" height="236" rx="11" fill="#171717"/>
<g filter="url(#filter0_d_25_9833)">
<path d="M219.256 195.033C219.711 194.919 220.185 194.894 220.65 194.962C221.945 195.19 223.168 195.719 224.22 196.508C225.272 197.297 226.123 198.323 226.705 199.503C227.342 201.017 226.999 202.228 225.956 202.745C225.871 202.789 225.783 202.826 225.693 202.857C212.906 208.242 192.901 207.709 174.362 189.536L181.055 182.701C194.909 196.244 209.321 197.981 219.256 195.033Z" fill="#181717"/>
<path d="M160.016 187.344C159.975 187.676 160.018 188.013 160.142 188.324C160.266 188.634 160.466 188.908 160.725 189.121C162.599 190.715 164.926 191.682 167.378 191.885C169.831 192.088 172.285 191.517 174.396 190.252C174.853 189.987 175.187 189.551 175.323 189.04C175.459 188.529 175.386 187.985 175.121 187.527C174.856 187.07 174.42 186.737 173.909 186.601C173.398 186.465 172.854 186.537 172.396 186.802C170.988 187.649 169.349 188.033 167.711 187.898C166.072 187.764 164.518 187.119 163.266 186.054C162.99 185.827 162.659 185.679 162.306 185.624C161.953 185.57 161.593 185.61 161.261 185.742C160.929 185.874 160.639 186.092 160.42 186.373C160.201 186.655 160.061 186.99 160.016 187.344Z" fill="#181717"/>
<path d="M177.708 195.269C172.631 195.269 168.515 191.153 168.515 186.075C168.515 180.998 172.631 176.881 177.708 176.881C182.786 176.881 186.902 180.998 186.902 186.075C186.902 191.153 182.786 195.269 177.708 195.269Z" fill="url(#paint0_linear_25_9833)"/>
<path opacity="0.2" d="M172.65 178.404C171.304 179.416 169.559 184.116 173.447 187.829C177.972 192.115 186.138 189.637 186.752 184.642C187.011 186.274 186.826 187.946 186.215 189.482C185.604 191.017 184.591 192.36 183.282 193.368C181.973 194.377 180.416 195.013 178.776 195.212C177.135 195.41 175.471 195.163 173.959 194.495C172.448 193.828 171.144 192.766 170.185 191.42C169.226 190.074 168.647 188.495 168.51 186.848C168.373 185.201 168.682 183.548 169.405 182.062C170.128 180.576 171.238 179.312 172.619 178.404H172.65Z" fill="black"/>
<path opacity="0.3" d="M184.455 181.355C184.521 181.429 184.579 181.509 184.631 181.594C184.949 182.064 185.189 182.584 185.34 183.131C185.564 183.73 185.6 184.384 185.443 185.004C185.347 185.32 185.138 185.589 184.856 185.761C184.574 185.933 184.239 185.995 183.914 185.936C183.3 185.745 183.037 185.043 182.838 184.438C182.317 182.872 181.636 181.363 180.807 179.937C180.757 179.87 180.721 179.794 180.702 179.713C180.683 179.632 180.68 179.548 180.695 179.467C180.767 179.26 181.038 179.212 181.261 179.22C182.575 179.307 183.595 180.359 184.455 181.355Z" fill="white"/>
<path d="M167.972 171.337C167.914 171.823 168.037 172.314 168.318 172.715C168.598 173.116 169.017 173.4 169.494 173.512C171.101 173.859 172.559 174.703 173.661 175.924C174.764 177.145 175.454 178.681 175.636 180.316C175.703 180.844 175.976 181.324 176.397 181.651C176.817 181.977 177.351 182.123 177.879 182.057C178.407 181.99 178.887 181.716 179.214 181.296C179.54 180.875 179.686 180.342 179.619 179.814C179.344 177.368 178.307 175.069 176.657 173.243C175.006 171.416 172.824 170.154 170.418 169.632C170.147 169.567 169.866 169.561 169.592 169.614C169.319 169.667 169.061 169.778 168.834 169.94C168.607 170.101 168.418 170.31 168.279 170.551C168.14 170.792 168.054 171.06 168.028 171.337H167.972Z" fill="#181717"/>
<path d="M311.616 186.057C311.616 220.314 296.55 291.84 260.947 291.84C225.343 291.84 210.294 220.274 210.294 186.057H311.616Z" fill="url(#paint1_linear_25_9833)"/>
<path opacity="0.8" d="M311.616 186.057C311.616 220.314 296.55 291.84 260.947 291.84C225.343 291.84 210.294 220.274 210.294 186.057H311.616Z" fill="white"/>
<path d="M210.294 186.057C211.728 206.683 217.392 220.696 226.331 225.652C230.076 227.723 235.334 227.723 239.875 225.652C247.483 222.114 252.67 213.606 253.474 209.543L255.426 209.933C254.526 214.498 248.997 223.612 240.719 227.46C238.026 228.589 235.139 229.182 232.219 229.205C229.824 229.21 227.467 228.602 225.375 227.436C219.241 224.034 214.572 216.808 211.608 206.428C210.758 199.683 210.306 192.894 210.254 186.096L210.294 186.057Z" fill="url(#paint2_linear_25_9833)"/>
<path d="M225.916 205.386C225.916 241.157 231.82 267.91 243.499 285.341C241.994 284.146 240.575 282.847 239.253 281.453C229.334 263.791 224.323 238.369 224.323 205.386H225.916Z" fill="url(#paint3_linear_25_9833)"/>
<path opacity="0.2" d="M264.301 277.42C279.764 263.414 282.704 222.449 278.338 213.534V186.057H311.616C311.616 220.314 296.55 291.84 260.947 291.84C248.996 291.84 239.357 283.762 231.828 271.74C231.804 271.748 248.845 291.434 264.301 277.42Z" fill="url(#paint4_linear_25_9833)"/>
<path d="M225.12 206.746C244.909 218.17 276.992 218.17 296.781 206.746C306.676 201.034 311.616 193.545 311.616 186.032C311.616 178.519 306.676 171.062 296.781 165.318C276.992 153.886 244.909 153.894 225.12 165.318C215.225 171.03 210.278 178.511 210.278 186.032C210.278 193.553 215.225 201.034 225.12 206.746Z" fill="url(#paint5_linear_25_9833)"/>
<path opacity="0.6" d="M225.12 206.746C244.909 218.17 276.992 218.17 296.781 206.746C306.676 201.034 311.616 193.545 311.616 186.032C311.616 178.519 306.676 171.062 296.781 165.318C276.992 153.886 244.909 153.894 225.12 165.318C215.225 171.03 210.278 178.511 210.278 186.032C210.278 193.553 215.225 201.034 225.12 206.746Z" fill="white"/>
<path opacity="0.3" d="M224.569 192.437C221.753 189.749 219.615 186.43 218.332 182.754C217.05 179.078 216.659 175.149 217.192 171.293C219.584 168.988 222.262 166.999 225.159 165.373C244.948 153.949 277.031 153.949 296.82 165.373C306.715 171.086 311.655 178.566 311.655 186.087C311.655 193.608 306.715 201.065 296.82 206.801C279.955 216.528 254.174 217.954 234.679 211.111C254.596 217.214 280.448 211.772 282.647 200.993C270.657 205.964 240.192 208.02 224.569 192.437Z" fill="url(#paint6_linear_25_9833)"/>
<path d="M310.428 208.006C314.441 210.53 317.32 214.511 318.459 219.114C319.599 223.716 318.91 228.58 316.538 232.685C314.166 236.79 310.295 239.816 305.738 241.127C301.182 242.437 296.295 241.931 292.104 239.714C289.762 238.36 288.312 235.46 288.312 231.333C288.312 223.071 294.104 213.009 301.25 208.906C304.843 206.843 308.086 206.652 310.428 208.006Z" fill="#455A64"/>
<path d="M302.224 237.575C311.593 238.428 318.349 230.923 319.433 221.554C319.854 224.934 319.325 228.364 317.906 231.46C316.486 234.556 314.231 237.195 311.395 239.081C308.558 240.967 305.252 242.025 301.848 242.136C298.444 242.247 295.076 241.407 292.122 239.71C289.78 238.356 288.33 235.456 288.33 231.329C288.349 229.568 288.585 227.815 289.031 226.111C289.039 231.345 292.194 236.659 302.224 237.575Z" fill="#37474F"/>
<path d="M311.911 224.006C314.78 222.357 317.098 223.695 317.098 227.001C317.002 228.8 316.482 230.552 315.58 232.112C314.679 233.672 313.422 234.997 311.911 235.98C309.051 237.637 306.733 236.291 306.733 232.984C306.83 231.186 307.35 229.436 308.25 227.876C309.149 226.316 310.404 224.99 311.911 224.006Z" fill="#263238"/>
<path d="M315.234 225.92C315.135 227.719 314.614 229.469 313.713 231.029C312.812 232.589 311.556 233.915 310.048 234.899C309.273 235.396 308.361 235.636 307.443 235.584C306.939 234.812 306.691 233.9 306.734 232.979C306.831 231.181 307.35 229.431 308.25 227.871C309.15 226.311 310.404 224.985 311.912 224C312.691 223.507 313.604 223.268 314.525 223.315C315.025 224.089 315.273 225 315.234 225.92Z" fill="url(#paint7_linear_25_9833)"/>
<path opacity="0.1" d="M315.001 227.81C314.324 230.726 312.549 233.268 310.045 234.908C309.271 235.405 308.359 235.645 307.44 235.593C306.936 234.821 306.688 233.909 306.731 232.988C306.743 232.101 306.885 231.22 307.153 230.375C308.763 233.275 314.172 230.622 315.001 227.81Z" fill="black"/>
<path d="M308.366 233.844C308.197 233.404 308.116 232.936 308.127 232.465C308.199 231.153 308.579 229.876 309.236 228.738C309.894 227.601 310.81 226.634 311.912 225.917C313.338 225.12 314.581 225.295 315.218 226.267C315.273 226.345 315.321 226.428 315.361 226.514C322.237 238.568 324.125 258.493 308.271 279.095L300.686 273.271C312.517 257.864 312.517 243.348 308.366 233.844Z" fill="#181717"/>
<path d="M307.854 293.57C308.188 293.569 308.517 293.485 308.811 293.325C309.104 293.165 309.353 292.934 309.535 292.654C310.893 290.601 311.574 288.174 311.481 285.715C311.388 283.255 310.527 280.887 309.017 278.943C308.7 278.52 308.228 278.241 307.705 278.166C307.182 278.091 306.651 278.227 306.229 278.544C305.806 278.861 305.527 279.333 305.452 279.856C305.377 280.379 305.513 280.91 305.83 281.333C306.841 282.631 307.418 284.213 307.481 285.857C307.544 287.501 307.089 289.123 306.181 290.495C305.988 290.795 305.88 291.142 305.867 291.499C305.854 291.856 305.938 292.21 306.109 292.524C306.28 292.837 306.532 293.099 306.839 293.282C307.146 293.465 307.497 293.561 307.854 293.562V293.57Z" fill="#181717"/>
<path d="M297.429 282.063C294.172 278.168 294.689 272.37 298.585 269.113C302.48 265.856 308.278 266.373 311.535 270.269C314.792 274.164 314.275 279.962 310.379 283.219C306.484 286.476 300.686 285.959 297.429 282.063Z" fill="url(#paint8_linear_25_9833)"/>
<path opacity="0.2" d="M297.467 282.103C298.63 283.314 303.505 284.493 306.732 280.152C310.437 275.148 307.003 267.333 301.952 267.325C303.541 266.872 305.223 266.856 306.821 267.279C308.418 267.701 309.873 268.546 311.03 269.725C312.188 270.904 313.007 272.373 313.4 273.978C313.794 275.583 313.747 277.265 313.266 278.846C312.784 280.426 311.886 281.848 310.664 282.961C309.443 284.075 307.944 284.838 306.326 285.172C304.707 285.505 303.029 285.396 301.467 284.856C299.905 284.316 298.518 283.365 297.451 282.103H297.467Z" fill="black"/>
<path opacity="0.3" d="M298.989 270.026C299.057 269.95 299.132 269.881 299.212 269.818C299.643 269.454 300.127 269.156 300.646 268.934C301.215 268.642 301.859 268.528 302.494 268.607C302.821 268.665 303.114 268.841 303.32 269.101C303.525 269.361 303.628 269.687 303.61 270.018C303.49 270.647 302.813 270.99 302.247 271.26C300.755 271.969 299.338 272.825 298.017 273.818C297.957 273.876 297.886 273.921 297.808 273.949C297.729 273.978 297.646 273.99 297.563 273.985C297.348 273.937 297.268 273.674 297.26 273.451C297.18 272.137 298.105 270.998 298.989 270.026Z" fill="white"/>
<path d="M291.013 287.59C291.497 287.59 291.965 287.413 292.328 287.094C292.692 286.774 292.927 286.333 292.989 285.853C293.141 284.214 293.804 282.665 294.885 281.424C295.966 280.183 297.41 279.313 299.012 278.938C299.524 278.809 299.964 278.481 300.236 278.028C300.507 277.575 300.587 277.032 300.458 276.52C300.329 276.007 300.002 275.567 299.548 275.296C299.095 275.025 298.552 274.945 298.04 275.074C295.642 275.639 293.483 276.942 291.866 278.801C290.25 280.659 289.257 282.978 289.029 285.431C289.001 285.69 289.023 285.953 289.096 286.203C289.169 286.454 289.291 286.688 289.455 286.892C289.618 287.095 289.82 287.264 290.05 287.39C290.279 287.515 290.53 287.594 290.79 287.621L291.013 287.59Z" fill="#181717"/>
<path d="M220.076 170.46C220.076 164.421 224.06 158.382 232.027 153.777C247.96 144.559 273.861 144.559 289.826 153.777C297.793 158.382 301.776 164.421 301.776 170.46V177.941C301.776 183.979 297.793 190.018 289.826 194.623C273.892 203.841 247.984 203.841 232.027 194.623C224.06 190.018 220.076 183.979 220.076 177.941V170.46Z" fill="#37474F"/>
<path d="M254.533 201.241C264.364 201.44 277.143 196.962 273.892 185.419V148.086C279.48 149.097 284.864 151.021 289.826 153.782C297.793 158.387 301.776 164.426 301.776 170.465V177.946C301.776 183.984 297.793 190.023 289.826 194.628C280.234 200.181 267.009 202.38 254.533 201.241Z" fill="#263238"/>
<path d="M232.051 187.161C247.985 196.379 273.885 196.371 289.85 187.161C297.817 182.548 301.801 176.509 301.801 170.431C301.801 164.352 297.817 158.353 289.85 153.748C273.917 144.53 248.009 144.53 232.051 153.748C224.084 158.353 220.101 164.392 220.101 170.431C220.101 176.469 224.068 182.548 232.051 187.161Z" fill="#263238"/>
<path d="M205.951 181.489L207.719 179.896C206.014 178.008 204.055 175.116 204.413 171.929C204.684 169.587 206.238 167.42 209.042 165.492C212.247 163.267 215.728 161.47 219.399 160.146C219.622 159.222 220.076 157.756 220.195 157.358C215.734 158.764 211.513 160.843 207.68 163.524C204.294 165.859 202.39 168.599 202.039 171.65C201.577 175.698 203.919 179.227 205.951 181.489Z" fill="#181717"/>
<path d="M205.225 178.433C207.536 176.624 209.073 177.636 212.156 181.396C215.24 185.157 214.371 186.686 212.459 188.192C210.547 189.698 208.476 188.774 206.038 185.635C203.329 182.105 202.477 180.592 205.225 178.433Z" fill="url(#paint9_linear_25_9833)"/>
<path opacity="0.3" d="M210.533 181.013C211.354 181.78 212.055 182.667 212.612 183.642C212.804 183.958 212.925 184.312 212.966 184.679C213.007 185.047 212.968 185.419 212.851 185.769C212.703 186.076 212.492 186.348 212.23 186.566C211.725 187.065 211.058 187.364 210.35 187.41C210.225 187.421 210.1 187.393 209.991 187.331C209.926 187.276 209.874 187.208 209.838 187.131C209.803 187.054 209.784 186.97 209.784 186.885C209.689 186.144 209.888 185.395 209.784 184.654C209.569 182.774 207.593 181.396 207.577 179.507C207.571 179.403 207.59 179.3 207.633 179.205C207.84 178.822 208.43 179.053 208.741 179.205C208.876 179.306 209.002 179.421 209.115 179.547C209.322 179.762 209.537 179.977 209.744 180.201L210.533 181.013Z" fill="white"/>
<path d="M215.185 168.593C215.105 162.532 216.23 156.516 218.494 150.893C220.758 145.27 224.117 140.153 228.374 135.839C232.632 131.525 237.704 128.099 243.296 125.761C248.889 123.423 254.89 122.219 260.951 122.219C267.012 122.219 273.013 123.423 278.605 125.761C284.198 128.099 289.27 131.525 293.528 135.839C297.785 140.153 301.144 145.27 303.408 150.893C305.672 156.516 306.796 162.532 306.716 168.593C306.716 175.349 302.247 182.136 293.308 187.275C275.439 197.632 246.463 197.632 228.586 187.275C219.647 182.112 215.185 175.357 215.185 168.593Z" fill="url(#paint10_linear_25_9833)"/>
<path opacity="0.8" d="M215.185 168.593C215.105 162.532 216.23 156.516 218.494 150.893C220.758 145.27 224.117 140.153 228.374 135.839C232.632 131.525 237.704 128.099 243.296 125.761C248.889 123.423 254.89 122.219 260.951 122.219C267.012 122.219 273.013 123.423 278.605 125.761C284.198 128.099 289.27 131.525 293.528 135.839C297.785 140.153 301.144 145.27 303.408 150.893C305.672 156.516 306.796 162.532 306.716 168.593C306.716 175.349 302.247 182.136 293.308 187.275C275.439 197.632 246.463 197.632 228.586 187.275C219.647 182.112 215.185 175.357 215.185 168.593Z" fill="white"/>
<path opacity="0.3" d="M221.192 181.686C244.997 196.353 276.418 194.8 277.127 179.225C277.613 168.597 283.102 159.73 290.249 155.619C289.524 138.888 278.418 125.624 266.412 123.17C277.518 124.506 287.75 129.864 295.175 138.231C302.6 146.598 306.703 157.395 306.708 168.581C306.708 175.337 302.239 182.124 293.3 187.263C275.43 197.62 246.455 197.62 228.577 187.263C226.638 186.154 224.804 184.872 223.096 183.431L221.256 181.742L221.192 181.686Z" fill="url(#paint11_linear_25_9833)"/>
<path d="M216.573 157.395C218.603 149.325 222.801 141.964 228.715 136.108C228.715 140.888 231.845 145.668 238.147 149.277C245.572 153.563 255.674 155.324 265.37 154.559C267.472 154.383 269.563 155.007 271.226 156.305C272.889 157.603 274.001 159.48 274.341 161.562C275.042 165.896 275.472 170.095 275.719 173.831C275.873 175.977 275.186 178.098 273.803 179.746C272.42 181.393 270.45 182.438 268.31 182.658C254.639 183.981 240.107 181.599 229.567 175.488C220.907 170.493 216.573 163.952 216.573 157.395Z" fill="#283840"/>
<path d="M256.804 171.566C256.931 171.578 257.059 171.578 257.187 171.566C257.445 171.518 257.691 171.42 257.911 171.276C258.131 171.133 258.321 170.947 258.469 170.73C258.617 170.513 258.721 170.269 258.774 170.012C258.828 169.755 258.83 169.49 258.78 169.232C258.438 167.476 257.584 165.862 256.325 164.592C255.066 163.322 253.459 162.454 251.706 162.098C249.954 161.741 248.136 161.913 246.48 162.59C244.825 163.267 243.408 164.419 242.408 165.902C242.112 166.34 242.003 166.878 242.104 167.397C242.205 167.916 242.507 168.374 242.946 168.67C243.163 168.817 243.407 168.919 243.663 168.971C243.92 169.023 244.184 169.024 244.442 168.975C244.961 168.874 245.419 168.571 245.714 168.132C246.274 167.305 247.066 166.662 247.991 166.284C248.915 165.906 249.931 165.81 250.91 166.009C251.889 166.207 252.787 166.691 253.492 167.399C254.196 168.108 254.675 169.009 254.868 169.989C254.963 170.433 255.206 170.831 255.558 171.118C255.91 171.405 256.35 171.563 256.804 171.566Z" fill="url(#paint12_linear_25_9833)"/>
<path opacity="0.3" d="M256.804 171.566C256.931 171.578 257.059 171.578 257.187 171.566C257.445 171.518 257.691 171.42 257.911 171.276C258.131 171.133 258.321 170.947 258.469 170.73C258.617 170.513 258.721 170.269 258.774 170.012C258.828 169.755 258.83 169.49 258.78 169.232C258.438 167.476 257.584 165.862 256.325 164.592C255.066 163.322 253.459 162.454 251.706 162.098C249.954 161.741 248.136 161.913 246.48 162.59C244.825 163.267 243.408 164.419 242.408 165.902C242.112 166.34 242.003 166.878 242.104 167.397C242.205 167.916 242.507 168.374 242.946 168.67C243.163 168.817 243.407 168.919 243.663 168.971C243.92 169.023 244.184 169.024 244.442 168.975C244.961 168.874 245.419 168.571 245.714 168.132C246.274 167.305 247.066 166.662 247.991 166.284C248.915 165.906 249.931 165.81 250.91 166.009C251.889 166.207 252.787 166.691 253.492 167.399C254.196 168.108 254.675 169.009 254.868 169.989C254.963 170.433 255.206 170.831 255.558 171.118C255.91 171.405 256.35 171.563 256.804 171.566Z" fill="white"/>
<path d="M220.164 147.834C221.652 148.467 222.942 149.489 223.899 150.793C224.857 152.097 225.446 153.633 225.605 155.243C225.656 155.768 225.497 156.292 225.163 156.699C224.828 157.107 224.345 157.365 223.821 157.418C223.694 157.434 223.565 157.434 223.438 157.418C222.979 157.374 222.549 157.172 222.222 156.847C221.895 156.521 221.691 156.092 221.646 155.633C221.55 154.718 221.207 153.846 220.652 153.112C220.098 152.377 219.353 151.809 218.499 151.467C218.998 150.234 219.553 149.023 220.164 147.834Z" fill="url(#paint13_linear_25_9833)"/>
<path opacity="0.3" d="M220.164 147.834C221.652 148.467 222.942 149.489 223.899 150.793C224.857 152.097 225.446 153.633 225.605 155.243C225.656 155.768 225.497 156.292 225.163 156.699C224.828 157.107 224.345 157.365 223.821 157.418C223.694 157.434 223.565 157.434 223.438 157.418C222.979 157.374 222.549 157.172 222.222 156.847C221.895 156.521 221.691 156.092 221.646 155.633C221.55 154.718 221.207 153.846 220.652 153.112C220.098 152.377 219.353 151.809 218.499 151.467C218.998 150.234 219.553 149.023 220.164 147.834Z" fill="white"/>
<g opacity="0.1">
<path d="M237.874 149.119C233.533 157.206 230.386 165.879 228.529 174.868C226.742 173.78 225.059 172.529 223.502 171.131C225.35 164.137 228.537 154.72 233.755 146.124C235.024 147.258 236.404 148.262 237.874 149.119Z" fill="white"/>
<path d="M241.554 150.983C244.459 152.23 247.491 153.157 250.596 153.747C248.879 163.006 247.814 172.374 247.41 181.782C242.905 180.978 238.506 179.666 234.296 177.871C235.956 168.72 238.384 159.726 241.554 150.983Z" fill="white"/>
</g>
<path d="M318.268 147.653C317.716 148.205 317.341 148.908 317.189 149.673C317.036 150.438 317.115 151.231 317.413 151.951C317.711 152.672 318.217 153.288 318.865 153.721C319.514 154.154 320.276 154.386 321.056 154.386C321.836 154.386 322.599 154.154 323.247 153.721C323.896 153.288 324.401 152.672 324.7 151.951C324.998 151.231 325.076 150.438 324.924 149.673C324.772 148.908 324.396 148.205 323.845 147.653C323.1 146.924 322.099 146.515 321.056 146.515C320.014 146.515 319.013 146.924 318.268 147.653Z" fill="url(#paint14_linear_25_9833)"/>
<path opacity="0.3" d="M318.268 147.652C317.759 148.161 317.399 148.8 317.227 149.5C317.055 150.199 317.078 150.932 317.293 151.62C317.508 152.307 317.908 152.923 318.448 153.399C318.988 153.875 319.649 154.195 320.358 154.322C321.067 154.45 321.797 154.381 322.47 154.123C323.142 153.865 323.731 153.427 324.172 152.858C324.614 152.289 324.891 151.61 324.974 150.894C325.057 150.179 324.942 149.454 324.642 148.799C324.642 148.895 324.642 148.998 324.578 149.094C324.212 150.249 322.602 150.759 320.993 150.241C319.384 149.723 318.404 148.409 318.746 147.262C318.574 147.375 318.414 147.506 318.268 147.652Z" fill="black"/>
<path d="M318.833 151.267C319.157 151.376 319.45 151.559 319.691 151.801C319.931 152.043 320.112 152.337 320.219 152.661C320.263 152.775 320.275 152.899 320.256 153.019C320.236 153.139 320.185 153.252 320.108 153.346L303.378 170.077L301.41 168.109L318.14 151.379C318.235 151.299 318.349 151.247 318.471 151.227C318.593 151.208 318.718 151.221 318.833 151.267Z" fill="#263238"/>
<path opacity="0.3" d="M323.583 147.895C323.662 147.978 323.715 148.081 323.736 148.192C323.757 148.304 323.746 148.419 323.703 148.525C323.544 148.756 323.185 148.684 322.906 148.604C321.915 148.403 320.906 148.302 319.895 148.302C319.694 148.307 319.495 148.266 319.313 148.182C319.267 148.151 319.228 148.111 319.199 148.065C319.169 148.018 319.149 147.965 319.141 147.911C319.133 147.856 319.136 147.8 319.151 147.747C319.165 147.693 319.191 147.644 319.226 147.601C319.37 147.411 319.555 147.255 319.767 147.146C320.268 146.861 320.843 146.736 321.416 146.788C321.923 146.815 322.415 146.966 322.85 147.226C323.135 147.401 323.384 147.628 323.583 147.895Z" fill="white"/>
<path d="M302.47 156.483C306.484 159.007 309.362 162.989 310.502 167.591C311.641 172.193 310.952 177.058 308.58 181.163C306.208 185.267 302.337 188.293 297.781 189.604C293.224 190.915 288.337 190.408 284.146 188.191C281.804 186.837 280.354 183.937 280.354 179.81C280.354 171.556 286.146 161.486 293.292 157.391C296.885 155.328 300.128 155.129 302.47 156.483Z" fill="#455A64"/>
<path d="M294.264 186.055C303.633 186.908 310.389 179.403 311.472 170.034C311.894 173.414 311.365 176.845 309.945 179.941C308.525 183.037 306.271 185.676 303.434 187.561C300.598 189.447 297.292 190.505 293.888 190.616C290.483 190.727 287.116 189.887 284.162 188.191C281.82 186.836 280.37 183.936 280.37 179.809C280.386 178.051 280.619 176.301 281.063 174.599C281.079 179.833 284.234 185.139 294.264 186.055Z" fill="#37474F"/>
<path d="M303.951 172.491C306.819 170.834 309.138 172.172 309.138 175.478C309.041 177.278 308.521 179.029 307.62 180.589C306.719 182.149 305.462 183.475 303.951 184.457C301.091 186.114 298.773 184.776 298.773 181.469C298.87 179.671 299.389 177.921 300.289 176.361C301.188 174.801 302.443 173.475 303.951 172.491Z" fill="#263238"/>
<path d="M307.274 174.403C307.175 176.202 306.655 177.953 305.754 179.513C304.852 181.072 303.596 182.398 302.087 183.382C301.313 183.879 300.401 184.118 299.482 184.067C298.977 183.298 298.729 182.389 298.773 181.47C298.87 179.672 299.389 177.921 300.289 176.361C301.189 174.801 302.443 173.476 303.952 172.491C304.729 171.994 305.643 171.755 306.565 171.806C307.066 172.577 307.314 173.485 307.274 174.403Z" fill="url(#paint15_linear_25_9833)"/>
<path opacity="0.1" d="M307.043 176.28C306.369 179.197 304.593 181.741 302.087 183.379C301.313 183.875 300.401 184.115 299.482 184.064C298.977 183.295 298.729 182.385 298.773 181.467C298.784 180.577 298.926 179.694 299.195 178.845C300.805 181.729 306.214 179.092 307.043 176.28Z" fill="black"/>
<path d="M246.701 111.539C249.545 109.876 252.78 109 256.074 109C259.368 109 262.603 109.876 265.447 111.539L275.318 117.243C282.443 121.368 288.36 127.293 292.477 134.423C296.593 141.554 298.764 149.641 298.772 157.874C298.759 158.015 298.708 158.15 298.626 158.264C298.543 158.379 298.431 158.47 298.302 158.527C297.953 158.704 297.566 158.796 297.175 158.796C296.783 158.796 296.397 158.704 296.048 158.527C295.92 158.469 295.81 158.378 295.729 158.263C295.647 158.148 295.598 158.014 295.585 157.874C295.573 150.204 293.548 142.671 289.712 136.028C285.875 129.386 280.363 123.867 273.724 120.024L263.854 114.319C261.555 112.998 258.958 112.286 256.307 112.25C253.656 112.215 251.04 112.857 248.707 114.117C246.374 115.376 244.402 117.211 242.977 119.446C241.553 121.682 240.723 124.245 240.567 126.891C240.567 126.891 240.567 127.624 240.567 127.632C239.045 128.373 237.38 129.385 237.38 129.385V127.791C237.353 124.499 238.203 121.259 239.841 118.403C241.479 115.548 243.846 113.179 246.701 111.539Z" fill="#181717"/>
<path d="M298.335 160.084C300.346 158.806 302.704 158.188 305.083 158.315C305.473 158.642 305.88 158.976 306.206 159.327C305.591 159.146 304.952 159.055 304.31 159.056C302.334 159.132 300.412 159.722 298.733 160.769C291.699 164.832 285.986 174.735 285.986 182.845C285.986 185.984 286.847 188.422 288.377 189.967C287.899 189.84 287.413 189.672 286.935 189.497C285.678 187.512 285.059 185.191 285.158 182.845C285.182 174.48 291.085 164.266 298.335 160.084Z" fill="url(#paint16_linear_25_9833)"/>
<g opacity="0.3">
<path d="M298.334 160.08C300.345 158.803 302.704 158.185 305.082 158.312C305.472 158.638 305.879 158.973 306.205 159.324C305.59 159.143 304.951 159.052 304.309 159.053C302.333 159.128 300.411 159.719 298.733 160.766C291.698 164.829 285.986 174.731 285.986 182.842C285.986 185.981 286.846 188.418 288.376 189.964C287.898 189.837 287.412 189.669 286.934 189.494C285.678 187.509 285.058 185.188 285.157 182.842C285.181 174.476 291.084 164.263 298.334 160.08Z" fill="white"/>
</g>
</g>
<path d="M347.814 319.933C350.401 312.994 346.872 305.271 339.932 302.685C332.992 300.098 325.27 303.627 322.683 310.567C320.097 317.507 323.626 325.23 330.566 327.816C337.506 330.402 345.228 326.873 347.814 319.933Z" fill="#E6611E"/>
<path opacity="0.45" d="M121.18 213.22C122.997 215.153 124.2 217.581 124.637 220.197C125.074 222.814 124.725 225.501 123.634 227.919C122.544 230.337 120.761 232.377 118.51 233.782C116.26 235.186 113.644 235.892 110.993 235.809C108.341 235.727 105.774 234.86 103.616 233.318C101.457 231.776 99.8044 229.629 98.8664 227.148C97.9284 224.667 97.7474 221.963 98.3461 219.379C98.9449 216.795 100.297 214.446 102.23 212.63C104.823 210.199 108.274 208.896 111.827 209.007C115.38 209.117 118.744 210.633 121.18 213.22Z" fill="white"/>
<path opacity="0.15" d="M404.204 213.25C406.014 215.185 407.21 217.612 407.641 220.227C408.072 222.841 407.72 225.524 406.627 227.938C405.535 230.352 403.752 232.388 401.504 233.79C399.255 235.192 396.642 235.896 393.994 235.814C391.345 235.731 388.781 234.866 386.624 233.328C384.467 231.79 382.813 229.647 381.873 227.17C380.933 224.692 380.747 221.992 381.34 219.41C381.933 216.828 383.277 214.479 385.204 212.66C386.488 211.447 387.999 210.5 389.65 209.873C391.302 209.246 393.061 208.952 394.826 209.006C396.592 209.061 398.329 209.464 399.938 210.193C401.547 210.921 402.997 211.96 404.204 213.25Z" fill="white"/>
<path d="M373.18 149.229C374.997 151.161 376.2 153.589 376.637 156.206C377.074 158.822 376.725 161.509 375.634 163.927C374.544 166.345 372.761 168.386 370.51 169.79C368.26 171.195 365.644 171.9 362.993 171.818C360.341 171.735 357.774 170.868 355.616 169.326C353.457 167.785 351.804 165.637 350.866 163.156C349.928 160.675 349.747 157.971 350.346 155.387C350.945 152.803 352.297 150.455 354.23 148.639C355.513 147.432 357.021 146.491 358.667 145.868C360.314 145.244 362.068 144.952 363.827 145.006C365.587 145.061 367.319 145.462 368.924 146.187C370.529 146.911 371.975 147.945 373.18 149.229Z" fill="#E6611E"/>
<path opacity="0.45" d="M313.18 111.225C314.997 113.157 316.2 115.585 316.637 118.202C317.074 120.818 316.725 123.505 315.634 125.923C314.544 128.341 312.761 130.381 310.51 131.786C308.26 133.19 305.644 133.896 302.993 133.814C300.341 133.731 297.774 132.864 295.616 131.322C293.457 129.78 291.804 127.633 290.866 125.152C289.928 122.671 289.747 119.967 290.346 117.383C290.945 114.799 292.297 112.45 294.23 110.635C296.822 108.201 300.274 106.896 303.827 107.007C307.381 107.117 310.745 108.634 313.18 111.225Z" fill="white"/>
<path opacity="0.3" d="M348.4 240.356C349.839 241.89 350.791 243.817 351.136 245.892C351.481 247.967 351.203 250.098 350.337 252.016C349.471 253.933 348.056 255.551 346.271 256.664C344.486 257.777 342.411 258.336 340.308 258.271C338.205 258.205 336.169 257.517 334.457 256.295C332.745 255.072 331.434 253.37 330.689 251.402C329.944 249.435 329.8 247.29 330.273 245.241C330.747 243.191 331.817 241.327 333.35 239.886C335.408 237.953 338.15 236.917 340.972 237.005C343.794 237.093 346.466 238.299 348.4 240.356Z" fill="white"/>
<path opacity="0.15" d="M202.245 258.193C202.27 249.301 195.082 242.073 186.19 242.048C177.298 242.023 170.07 249.211 170.045 258.103C170.02 266.995 177.208 274.223 186.1 274.248C194.992 274.273 202.22 267.085 202.245 258.193Z" fill="white"/>
<path d="M108.1 141.2C116.992 141.2 124.2 133.992 124.2 125.1C124.2 116.208 116.992 109 108.1 109C99.2082 109 92 116.208 92 125.1C92 133.992 99.2082 141.2 108.1 141.2Z" fill="#E6611E"/>
<defs>
<filter id="filter0_d_25_9833" x="0.000610352" y="0" width="404.999" height="424.57" filterUnits="userSpaceOnUse" color-interpolation-filters="sRGB">
<feFlood flood-opacity="0" result="BackgroundImageFix"/>
<feColorMatrix in="SourceAlpha" type="matrix" values="0 0 0 0 0 0 0 0 0 0 0 0 0 0 0 0 0 0 127 0" result="hardAlpha"/>
<feOffset dx="-40" dy="11"/>
<feGaussianBlur stdDeviation="60"/>
<feComposite in2="hardAlpha" operator="out"/>
<feColorMatrix type="matrix" values="0 0 0 0 0.901961 0 0 0 0 0.380392 0 0 0 0 0.117647 0 0 0 0.5 0"/>
<feBlend mode="normal" in2="BackgroundImageFix" result="effect1_dropShadow_25_9833"/>
<feBlend mode="normal" in="SourceGraphic" in2="effect1_dropShadow_25_9833" result="shape"/>
</filter>
<linearGradient id="paint0_linear_25_9833" x1="177.708" y1="176.881" x2="177.708" y2="195.269" gradientUnits="userSpaceOnUse">
<stop stop-color="#53FFFF"/>
<stop offset="1" stop-color="#E6611E"/>
</linearGradient>
<linearGradient id="paint1_linear_25_9833" x1="260.955" y1="186.057" x2="260.955" y2="291.84" gradientUnits="userSpaceOnUse">
<stop stop-color="#53FFFF"/>
<stop offset="1" stop-color="#E6611E"/>
</linearGradient>
<linearGradient id="paint2_linear_25_9833" x1="232.84" y1="186.057" x2="232.84" y2="229.205" gradientUnits="userSpaceOnUse">
<stop stop-color="#53FFFF"/>
<stop offset="1" stop-color="#E6611E"/>
</linearGradient>
<linearGradient id="paint3_linear_25_9833" x1="233.911" y1="205.386" x2="233.911" y2="285.341" gradientUnits="userSpaceOnUse">
<stop stop-color="#53FFFF"/>
<stop offset="1" stop-color="#E6611E"/>
</linearGradient>
<linearGradient id="paint4_linear_25_9833" x1="271.722" y1="186.057" x2="271.722" y2="291.84" gradientUnits="userSpaceOnUse">
<stop stop-color="#53FFFF"/>
<stop offset="1" stop-color="#E6611E"/>
</linearGradient>
<linearGradient id="paint5_linear_25_9833" x1="260.947" y1="156.747" x2="260.947" y2="215.314" gradientUnits="userSpaceOnUse">
<stop stop-color="#53FFFF"/>
<stop offset="1" stop-color="#E6611E"/>
</linearGradient>
<linearGradient id="paint6_linear_25_9833" x1="264.307" y1="156.805" x2="264.307" y2="215.356" gradientUnits="userSpaceOnUse">
<stop stop-color="#53FFFF"/>
<stop offset="1" stop-color="#E6611E"/>
</linearGradient>
<linearGradient id="paint7_linear_25_9833" x1="310.984" y1="223.309" x2="310.984" y2="235.591" gradientUnits="userSpaceOnUse">
<stop stop-color="#53FFFF"/>
<stop offset="1" stop-color="#E6611E"/>
</linearGradient>
<linearGradient id="paint8_linear_25_9833" x1="311.535" y1="270.269" x2="297.429" y2="282.063" gradientUnits="userSpaceOnUse">
<stop stop-color="#53FFFF"/>
<stop offset="1" stop-color="#E6611E"/>
</linearGradient>
<linearGradient id="paint9_linear_25_9833" x1="208.863" y1="177.56" x2="208.863" y2="188.898" gradientUnits="userSpaceOnUse">
<stop stop-color="#53FFFF"/>
<stop offset="1" stop-color="#E6611E"/>
</linearGradient>
<linearGradient id="paint10_linear_25_9833" x1="260.951" y1="122.219" x2="260.951" y2="195.043" gradientUnits="userSpaceOnUse">
<stop stop-color="#53FFFF"/>
<stop offset="1" stop-color="#E6611E"/>
</linearGradient>
<linearGradient id="paint11_linear_25_9833" x1="263.95" y1="123.17" x2="263.95" y2="195.031" gradientUnits="userSpaceOnUse">
<stop stop-color="#53FFFF"/>
<stop offset="1" stop-color="#E6611E"/>
</linearGradient>
<linearGradient id="paint12_linear_25_9833" x1="250.441" y1="161.916" x2="250.441" y2="171.575" gradientUnits="userSpaceOnUse">
<stop stop-color="#53FFFF"/>
<stop offset="1" stop-color="#E6611E"/>
</linearGradient>
<linearGradient id="paint13_linear_25_9833" x1="222.057" y1="147.834" x2="222.057" y2="157.43" gradientUnits="userSpaceOnUse">
<stop stop-color="#53FFFF"/>
<stop offset="1" stop-color="#E6611E"/>
</linearGradient>
<linearGradient id="paint14_linear_25_9833" x1="321.056" y1="146.515" x2="321.056" y2="154.386" gradientUnits="userSpaceOnUse">
<stop stop-color="#53FFFF"/>
<stop offset="1" stop-color="#E6611E"/>
</linearGradient>
<linearGradient id="paint15_linear_25_9833" x1="303.023" y1="171.799" x2="303.023" y2="184.074" gradientUnits="userSpaceOnUse">
<stop stop-color="#53FFFF"/>
<stop offset="1" stop-color="#E6611E"/>
</linearGradient>
<linearGradient id="paint16_linear_25_9833" x1="295.677" y1="158.299" x2="295.677" y2="189.967" gradientUnits="userSpaceOnUse">
<stop stop-color="#53FFFF"/>
<stop offset="1" stop-color="#E6611E"/>
</linearGradient>
</defs>
</svg>
