<svg width="24" height="24" viewBox="0 0 24 24" fill="none" xmlns="http://www.w3.org/2000/svg">
<path d="M1 6.5V18.6C1 20.1401 1 20.9097 1.29974 21.498C1.56338 22.0154 1.98377 22.4369 2.50123 22.7005C3.0889 23 3.85861 23 5.39575 23H18.6043C20.1414 23 20.91 23 21.4977 22.7005C22.0151 22.4369 22.4369 22.0154 22.7005 21.498C23 20.9103 23 20.1414 23 18.6043V6.5M1 6.5H23M1 6.5L2.87712 3.21497C3.33778 2.40882 3.56806 2.00583 3.89197 1.71235C4.17878 1.45247 4.51806 1.25582 4.88598 1.13573C5.30184 1 5.76607 1 6.69605 1H17.3035C18.2334 1 18.6994 1 19.1152 1.13573C19.4832 1.25582 19.8209 1.45247 20.1077 1.71235C20.4318 2.00606 20.6628 2.40947 21.1241 3.21691L23 6.5M12 10.625V18.875M12 18.875L16.125 16.125M12 18.875L7.875 16.125" stroke="url(#paint0_linear_29_10855)" stroke-width="2" stroke-linecap="round" stroke-linejoin="round"/>
<defs>
<linearGradient id="paint0_linear_29_10855" x1="12" y1="1" x2="12" y2="23" gradientUnits="userSpaceOnUse">
<stop stop-color="#53FFFF"/>
<stop offset="0.473994" stop-color="#F5EEFF" stop-opacity="0.78"/>
<stop offset="0.979211" stop-color="#E6611E" stop-opacity="0.7"/>
</linearGradient>
</defs>
</svg>
